<svg version="1.2" xmlns="http://www.w3.org/2000/svg" viewBox="0 0 512 512" width="512" height="512">
	<title>aura</title>
	<style>
		.s0 { fill: none } 
		.s1 { fill: #ffffff } 
	</style>
	<path fill-rule="evenodd" class="s0" d="m512 0v512h-512v-512z"/>
	<g>
		<path class="s1" d="m320.9 13.3c-16.6 34.6-38.4 60.1-63.1 60.1-24.5 0-47-25.2-63.6-59.6 0.4 39.4-9.7 90.9-30.9 105.2-21.3 14.2-49.7-12-78.9-32.2 17.5 34.1 42.1 67.5 29.8 92.3-12.2 24.6-59.2 36-92.9 35.6 29.4 19.3 78.9 45.9 78.9 74.2 0 28.4-49.5 53.7-78.9 73 33.7-0.3 80.7 11.6 92.9 36.2 12.2 24.6-9 56.3-33.8 85.6 44.9-15.4 65.2-5.7 85.4 10.8h31.8c-42.8-35.4-72.1-107.8-72.1-191.6 0-118.6 58.9-214.9 131.4-214.9 72.5 0 131.4 96.3 131.4 214.9 0 83.8-29.3 156.2-72 191.6h27.3c19.8-14.6 39.8-25.6 89.7-9.3-26.3-30.2-42.2-62.5-30-87.1 12.2-24.6 56.6-36.6 90.5-36.2-29.4-19.3-75.3-44.5-75.3-73 0-28.4 45.9-54.9 75.3-74.2-33.9 0.5-78.3-10.9-90.5-35.6-12.3-24.8 10-58.2 27.4-92.3-29.2 20.2-57.6 46.4-78.8 32.2-21.3-14.3-31.4-66.2-31-105.7zm-68.9 93.7c-19.6 2.6-37.4 25.6-37.4 55.4 0 16.5 5.7 31 14 41.1l10.2 12.2-15.6 2.9c-10.8 2.1-18.8 7.8-25.5 17.1-6.8 9.3-12 22.3-15.7 37.3-6.6 27.2-8 60.3-8.3 89.5h36.1l0.7 8.7 9.1 122.5h76.2l8.1-122.5 0.5-8.7h34.4c0-29.6-0.4-63.2-6.4-90.5-3.3-15.1-8.3-28.1-15.1-37.3-6.9-9.2-15.2-14.9-27.3-16.8l-16-2.5 10.1-12.6c8-10 13.4-24.3 13.4-40.4 0-31.8-19.9-55.3-41.5-55.3-2.5 0-3.9-0.1-4-0.1q0 0 0 0z"/>
	</g>
</svg>