<svg version="1.2" xmlns="http://www.w3.org/2000/svg" viewBox="0 0 512 512" width="512" height="512">
	<style>
		.s0 { fill: #ffffff }
	</style>
	<g>
		<path class="s0" d="m216.24 23.55c-1.51-0.04-3.07 0.13-4.59 0.13-32.33 0-58.65 33.38-58.65 74.74 0 20.94 6.97 39.84 17.81 53.44-67.07 10.4-65.61 115.71-65.61 188.57h40.41l9.99 151.64h78.41l-9.49-151.35h-40.58c0-72.85-1.29-178.35 65.79-188.75-10.85-13.6-17.83-32.55-17.83-53.49 0-22.14 7.47-41.88 19.37-55.46-9.03-10.62-20.67-17.67-33.53-19.34q-0.74-0.11-1.5-0.12zm78.7 0.4c-1.53-0.04-3.12 0.12-4.64 0.12v468.51h52.26l11.69-151.87 42.42 0.01c0-72.66-5-175.98-66.4-187.53 11.33-13.67 19.06-33.25 19.06-54.72 0-38.78-23.35-70.56-52.88-74.4q-0.74-0.11-1.51-0.12z"/>
	</g>
</svg>
